# xmcd
#
# Track frame offsets: 
#        150
#        13082
#        24621
#        37567
#        49322
#        62707
#        76670
#        88975
#        101663
#        113118
#        126043
#        138780
#        151991
#        165759
#        178879
#        192138
#        206630
#        220969
#        233462
#        246373
#        261750
#        277448
#        291153
#
# Disc length: 4061 seconds
#
# Revision: 0
# Processed by: cddbd v1.5.2PL0 Copyright (c) Steve Scherf et al.
# Submitted via: ExactAudioCopy v0.95b3
#
DISCID=410fdb17
DTITLE=Blind Lemon Jefferson  - Texas Blues - Box - CD3
DYEAR=1900
DGENRE=
TTITLE0=One Dime Blues
TTITLE1=Lonesome House Blues
TTITLE2=Blind Lemons Penitentiary Blues
TTITLE3=Lectric Chair Blues
TTITLE4=See That My Grave Is Kept Clean
TTITLE5=Lemons Worried Blues
TTITLE6=Mean Jumper Blues
TTITLE7=Balky Mule Blues
TTITLE8=Change My Luck Blues
TTITLE9=Prison Cell Blues
TTITLE10=Lemons Cannon Ball Moan
TTITLE11=Long Lastin Lovin
TTITLE12=Piney Woods Money Mama
TTITLE13=Low Down Mojo Blues
TTITLE14=Competition Bed Blues
TTITLE15=Lock Step Blues
TTITLE16=Hangmans Blues
TTITLE17=Sad News Blues
TTITLE18=How Long How Long
TTITLE19=Lockstep Blues
TTITLE20=Hangmans Blues
TTITLE21=Christmas Eve Blues
TTITLE22=Happy New Year Blues
EXTD=
EXTT0=
EXTT1=
EXTT2=
EXTT3=
EXTT4=
EXTT5=
EXTT6=
EXTT7=
EXTT8=
EXTT9=
EXTT10=
EXTT11=
EXTT12=
EXTT13=
EXTT14=
EXTT15=
EXTT16=
EXTT17=
EXTT18=
EXTT19=
EXTT20=
EXTT21=
EXTT22=
PLAYORDER=
